<svg width="1200" height="420" viewBox="0 0 1200 420" fill="none" xmlns="http://www.w3.org/2000/svg">
  <defs>
    <linearGradient id="mesh" x1="0" y1="0" x2="1" y2="1">
      <stop offset="0%" stop-color="#9AA8B5" stop-opacity="0.95"/>
      <stop offset="100%" stop-color="#CBD5DF" stop-opacity="0.75"/>
    </linearGradient>
    <filter id="soft" x="-20%" y="-20%" width="140%" height="140%">
      <feGaussianBlur in="SourceGraphic" stdDeviation="0.6"/>
    </filter>
    <style>
      .word { font: 900 150px "Aptos", "Segoe UI", Arial, sans-serif; fill: #2F3843; letter-spacing: -8px; }
      .ring { stroke: #3A4350; stroke-width: 9; fill: none; }
      .node { fill: #3A4350; }
      .mesh { stroke: url(#mesh); stroke-width: 3; opacity: 0.95; }
      .dust { fill: #2F3843; opacity: 0.9; font: 500 18px "Consolas", "Menlo", monospace; }
      .paper { stroke: #D9DEE6; stroke-width: 2; fill: #FBFCFE; opacity: 0.95; }
    </style>
  </defs>

  <rect width="1200" height="420" fill="#F7F8FA"/>

  <text x="112" y="210" class="word">doctology</text>

  <circle cx="198" cy="187" r="37" class="ring"/>
  <circle cx="198" cy="187" r="7" class="node"/>
  <circle cx="337" cy="187" r="37" class="ring"/>
  <circle cx="337" cy="187" r="7" class="node"/>
  <circle cx="636" cy="187" r="37" class="ring"/>
  <circle cx="636" cy="187" r="7" class="node"/>
  <circle cx="779" cy="187" r="37" class="ring"/>
  <circle cx="779" cy="187" r="7" class="node"/>
  <circle cx="930" cy="187" r="37" class="ring"/>
  <circle cx="930" cy="187" r="7" class="node"/>

  <circle cx="146" cy="100" r="12" class="node"/>
  <circle cx="291" cy="142" r="8" class="node" opacity="0.35"/>
  <circle cx="493" cy="116" r="11" class="node"/>
  <circle cx="615" cy="104" r="12" class="node"/>
  <circle cx="875" cy="146" r="8" class="node" opacity="0.35"/>

  <path d="M146 100 L198 187 L337 187 L493 116 L636 187 L779 187 L875 146 L930 187" class="mesh"/>
  <path d="M146 100 L291 142 L493 116" class="mesh"/>
  <path d="M615 104 L636 187 L779 187 L930 187" class="mesh"/>
  <path d="M615 104 L779 187" class="mesh"/>
  <path d="M493 116 L636 187" class="mesh"/>
  <path d="M875 146 L779 187" class="mesh"/>
  <path d="M875 146 L930 187" class="mesh"/>

  <circle cx="480" cy="219" r="5" class="node" opacity="0.6"/>
  <circle cx="548" cy="258" r="5" class="node" opacity="0.6"/>
  <circle cx="599" cy="307" r="5" class="node" opacity="0.55"/>
  <circle cx="646" cy="278" r="5" class="node" opacity="0.6"/>
  <circle cx="697" cy="320" r="5" class="node" opacity="0.55"/>
  <circle cx="742" cy="270" r="5" class="node" opacity="0.6"/>

  <path d="M480 219 L548 258 L599 307 L697 320 L742 270 L646 278 L548 258" class="mesh"/>
  <path d="M636 187 L548 258 L480 219" class="mesh"/>
  <path d="M636 187 L646 278 L697 320" class="mesh"/>
  <path d="M615 104 L599 307" class="mesh"/>
  <path d="M779 187 L742 270 L697 320" class="mesh"/>
  <path d="M493 116 L599 307" class="mesh"/>
  <path d="M146 100 L599 307" class="mesh" opacity="0.45"/>
  <path d="M875 146 L697 320" class="mesh" opacity="0.5"/>

  <g filter="url(#soft)">
    <path d="M420 332 L500 322 L528 350 L446 360 Z" class="paper"/>
    <path d="M700 330 L780 320 L806 347 L724 357 Z" class="paper"/>
    <path d="M565 342 L645 333 L670 360 L588 368 Z" class="paper"/>
  </g>

  <text x="168" y="356" class="dust">∑</text>
  <text x="216" y="330" class="dust">λ</text>
  <text x="260" y="364" class="dust">k</text>
  <text x="306" y="336" class="dust">p</text>
  <text x="356" y="358" class="dust">e</text>
  <text x="406" y="344" class="dust">σ</text>
  <text x="454" y="382" class="dust">doc</text>
  <text x="520" y="336" class="dust">∫</text>
  <text x="568" y="386" class="dust">claim</text>
  <text x="662" y="350" class="dust">evidence</text>
  <text x="770" y="379" class="dust">graph</text>
  <text x="874" y="346" class="dust">π</text>
  <text x="922" y="373" class="dust">Ω</text>
  <text x="996" y="343" class="dust">kg</text>
</svg>
